<svg xmlns="http://www.w3.org/2000/svg" xmlns:xlink="http://www.w3.org/1999/xlink" width="348" zoomAndPan="magnify" viewBox="0 0 261 222.749995" height="297" preserveAspectRatio="xMidYMid meet" version="1.0"><defs><clipPath id="8f25eca723"><path d="M 0.144531 134 L 5 134 L 5 139 L 0.144531 139 Z M 0.144531 134 " clip-rule="nonzero"/></clipPath><clipPath id="f57a588fed"><path d="M 0.144531 121 L 5 121 L 5 126 L 0.144531 126 Z M 0.144531 121 " clip-rule="nonzero"/></clipPath><clipPath id="fa45b5d55b"><path d="M 0.144531 216 L 6 216 L 6 221.75 L 0.144531 221.75 Z M 0.144531 216 " clip-rule="nonzero"/></clipPath><clipPath id="7a280cf699"><path d="M 0.144531 109 L 6 109 L 6 115 L 0.144531 115 Z M 0.144531 109 " clip-rule="nonzero"/></clipPath><clipPath id="aa34b9efaf"><path d="M 256 134 L 260.105469 134 L 260.105469 139 L 256 139 Z M 256 134 " clip-rule="nonzero"/></clipPath><clipPath id="47f28f1cc0"><path d="M 0.144531 134 L 5 134 L 5 139 L 0.144531 139 Z M 0.144531 134 " clip-rule="nonzero"/></clipPath><clipPath id="cdd812c125"><path d="M 0.144531 121 L 5 121 L 5 126 L 0.144531 126 Z M 0.144531 121 " clip-rule="nonzero"/></clipPath><clipPath id="e19afe1d03"><path d="M 0.144531 216 L 6 216 L 6 221.75 L 0.144531 221.75 Z M 0.144531 216 " clip-rule="nonzero"/></clipPath><clipPath id="c601d8ea18"><path d="M 0.144531 109 L 6 109 L 6 115 L 0.144531 115 Z M 0.144531 109 " clip-rule="nonzero"/></clipPath><clipPath id="dd73edd38e"><path d="M 256 134 L 260.105469 134 L 260.105469 139 L 256 139 Z M 256 134 " clip-rule="nonzero"/></clipPath></defs><path fill="#d6d6d6" d="M 2.996094 217.300781 L 2.289062 217.300781 L 2.289062 163.359375 L 2.394531 163.257812 L 42.742188 122.910156 L 43.238281 123.410156 L 2.996094 163.652344 Z M 2.996094 217.300781 " fill-opacity="1" fill-rule="nonzero"/><path fill="#d6d6d6" d="M 2.890625 136.855469 L 2.394531 136.359375 L 42.84375 95.90625 L 69.742188 95.90625 L 96.535156 69.113281 L 97.035156 69.613281 L 70.035156 96.613281 L 43.136719 96.613281 Z M 2.890625 136.855469 " fill-opacity="1" fill-rule="nonzero"/><path fill="#d6d6d6" d="M 2.890625 123.410156 L 2.394531 122.910156 L 42.636719 82.667969 L 42.636719 55.765625 L 69.636719 28.765625 L 70.136719 29.265625 L 43.34375 56.058594 L 43.34375 82.957031 Z M 2.890625 123.410156 " fill-opacity="1" fill-rule="nonzero"/><path fill="#d6d6d6" d="M 16.339844 217.550781 L 15.84375 217.054688 L 56.292969 176.601562 L 110.089844 176.601562 L 150.332031 136.359375 L 150.832031 136.855469 L 110.382812 177.308594 L 56.585938 177.308594 Z M 16.339844 217.550781 " fill-opacity="1" fill-rule="nonzero"/><path fill="#d6d6d6" d="M 56.585938 217.65625 L 29.539062 217.65625 L 29.539062 216.949219 L 56.292969 216.949219 L 83.191406 190.050781 L 136.984375 190.050781 L 190.679688 136.359375 L 191.179688 136.855469 L 137.277344 190.757812 L 83.484375 190.757812 Z M 56.585938 217.65625 " fill-opacity="1" fill-rule="nonzero"/><path fill="#d6d6d6" d="M 16.339844 204.101562 L 15.84375 203.605469 L 69.535156 149.910156 L 69.535156 123.011719 L 96.535156 96.011719 L 97.035156 96.511719 L 70.242188 123.304688 L 70.242188 150.203125 Z M 16.339844 204.101562 " fill-opacity="1" fill-rule="nonzero"/><path fill="#d6d6d6" d="M 2.996094 109.710938 L 2.289062 109.710938 L 2.289062 55.765625 L 2.394531 55.664062 L 42.742188 15.316406 L 43.238281 15.816406 L 2.996094 56.058594 Z M 2.996094 109.710938 " fill-opacity="1" fill-rule="nonzero"/><path fill="#d6d6d6" d="M 16.445312 96.261719 L 15.738281 96.261719 L 15.738281 69.214844 L 15.84375 69.113281 L 83.085938 1.867188 L 83.585938 2.367188 L 16.445312 69.507812 Z M 16.445312 96.261719 " fill-opacity="1" fill-rule="nonzero"/><path fill="#d6d6d6" d="M 16.339844 177.207031 L 15.84375 176.707031 L 56.085938 136.460938 L 56.085938 109.710938 L 56.792969 109.710938 L 56.792969 136.753906 L 56.6875 136.855469 Z M 16.339844 177.207031 " fill-opacity="1" fill-rule="nonzero"/><path fill="#d6d6d6" d="M 83.585938 163.757812 L 83.085938 163.257812 L 136.78125 109.5625 L 136.78125 82.667969 L 150.332031 69.113281 L 150.832031 69.613281 L 137.484375 82.957031 L 137.484375 109.855469 Z M 83.585938 163.757812 " fill-opacity="1" fill-rule="nonzero"/><path fill="#d6d6d6" d="M 150.726562 217.65625 L 69.886719 217.65625 L 69.886719 216.949219 L 150.4375 216.949219 L 190.785156 176.601562 L 217.679688 176.601562 L 257.925781 136.359375 L 258.425781 136.855469 L 217.972656 177.308594 L 191.074219 177.308594 Z M 150.726562 217.65625 " fill-opacity="1" fill-rule="nonzero"/><path fill="#d6d6d6" d="M 191.28125 176.957031 L 190.574219 176.957031 L 190.574219 163.359375 L 231.027344 122.910156 L 231.527344 123.410156 L 191.28125 163.652344 Z M 191.28125 176.957031 " fill-opacity="1" fill-rule="nonzero"/><path fill="#d6d6d6" d="M 83.585938 136.855469 L 83.085938 136.359375 L 123.332031 96.117188 L 123.332031 55.765625 L 136.882812 42.214844 L 137.382812 42.714844 L 124.035156 56.058594 L 124.035156 96.40625 Z M 83.585938 136.855469 " fill-opacity="1" fill-rule="nonzero"/><path fill="#d6d6d6" d="M 152.699219 136.609375 C 152.699219 136.890625 152.648438 137.160156 152.539062 137.417969 C 152.433594 137.679688 152.277344 137.90625 152.082031 138.105469 C 151.882812 138.304688 151.652344 138.457031 151.394531 138.566406 C 151.132812 138.671875 150.863281 138.726562 150.582031 138.726562 C 150.300781 138.726562 150.03125 138.671875 149.773438 138.566406 C 149.511719 138.457031 149.285156 138.304688 149.085938 138.105469 C 148.886719 137.90625 148.734375 137.679688 148.625 137.417969 C 148.519531 137.160156 148.464844 136.890625 148.464844 136.609375 C 148.464844 136.328125 148.519531 136.058594 148.625 135.796875 C 148.734375 135.539062 148.886719 135.308594 149.085938 135.109375 C 149.285156 134.914062 149.511719 134.757812 149.773438 134.652344 C 150.03125 134.542969 150.300781 134.492188 150.582031 134.492188 C 150.863281 134.492188 151.132812 134.542969 151.394531 134.652344 C 151.652344 134.757812 151.882812 134.914062 152.082031 135.109375 C 152.277344 135.308594 152.433594 135.539062 152.539062 135.796875 C 152.648438 136.058594 152.699219 136.328125 152.699219 136.609375 Z M 152.699219 136.609375 " fill-opacity="1" fill-rule="nonzero"/><path fill="#d6d6d6" d="M 193.046875 136.609375 C 193.046875 136.890625 192.992188 137.160156 192.886719 137.417969 C 192.777344 137.679688 192.625 137.90625 192.425781 138.105469 C 192.226562 138.304688 192 138.457031 191.738281 138.566406 C 191.480469 138.671875 191.210938 138.726562 190.929688 138.726562 C 190.648438 138.726562 190.378906 138.671875 190.117188 138.566406 C 189.859375 138.457031 189.628906 138.304688 189.429688 138.105469 C 189.234375 137.90625 189.078125 137.679688 188.972656 137.417969 C 188.863281 137.160156 188.8125 136.890625 188.8125 136.609375 C 188.8125 136.328125 188.863281 136.058594 188.972656 135.796875 C 189.078125 135.539062 189.234375 135.308594 189.429688 135.109375 C 189.628906 134.914062 189.859375 134.757812 190.117188 134.652344 C 190.378906 134.542969 190.648438 134.492188 190.929688 134.492188 C 191.210938 134.492188 191.480469 134.542969 191.738281 134.652344 C 192 134.757812 192.226562 134.914062 192.425781 135.109375 C 192.625 135.308594 192.777344 135.539062 192.886719 135.796875 C 192.992188 136.058594 193.046875 136.328125 193.046875 136.609375 Z M 193.046875 136.609375 " fill-opacity="1" fill-rule="nonzero"/><path fill="#d6d6d6" d="M 233.394531 123.160156 C 233.394531 123.441406 233.339844 123.710938 233.234375 123.96875 C 233.125 124.230469 232.972656 124.457031 232.773438 124.65625 C 232.578125 124.855469 232.347656 125.007812 232.085938 125.117188 C 231.828125 125.222656 231.558594 125.277344 231.277344 125.277344 C 230.996094 125.277344 230.726562 125.222656 230.464844 125.117188 C 230.207031 125.007812 229.976562 124.855469 229.78125 124.65625 C 229.582031 124.457031 229.425781 124.230469 229.320312 123.96875 C 229.210938 123.710938 229.160156 123.441406 229.160156 123.160156 C 229.160156 122.878906 229.210938 122.609375 229.320312 122.347656 C 229.425781 122.089844 229.582031 121.859375 229.78125 121.660156 C 229.976562 121.464844 230.207031 121.308594 230.464844 121.203125 C 230.726562 121.09375 230.996094 121.042969 231.277344 121.042969 C 231.558594 121.042969 231.828125 121.09375 232.085938 121.203125 C 232.347656 121.308594 232.578125 121.464844 232.773438 121.660156 C 232.972656 121.859375 233.125 122.089844 233.234375 122.347656 C 233.339844 122.609375 233.394531 122.878906 233.394531 123.160156 Z M 233.394531 123.160156 " fill-opacity="1" fill-rule="nonzero"/><path fill="#d6d6d6" d="M 152.699219 69.363281 C 152.699219 69.644531 152.648438 69.914062 152.539062 70.175781 C 152.433594 70.433594 152.277344 70.664062 152.082031 70.863281 C 151.882812 71.058594 151.652344 71.214844 151.394531 71.320312 C 151.132812 71.429688 150.863281 71.480469 150.582031 71.480469 C 150.300781 71.480469 150.03125 71.429688 149.773438 71.320312 C 149.511719 71.214844 149.285156 71.058594 149.085938 70.863281 C 148.886719 70.664062 148.734375 70.433594 148.625 70.175781 C 148.519531 69.914062 148.464844 69.644531 148.464844 69.363281 C 148.464844 69.082031 148.519531 68.8125 148.625 68.554688 C 148.734375 68.292969 148.886719 68.0625 149.085938 67.867188 C 149.285156 67.667969 149.511719 67.515625 149.773438 67.40625 C 150.03125 67.300781 150.300781 67.246094 150.582031 67.246094 C 150.863281 67.246094 151.132812 67.300781 151.394531 67.40625 C 151.652344 67.515625 151.882812 67.667969 152.082031 67.867188 C 152.277344 68.0625 152.433594 68.292969 152.539062 68.554688 C 152.648438 68.8125 152.699219 69.082031 152.699219 69.363281 Z M 152.699219 69.363281 " fill-opacity="1" fill-rule="nonzero"/><path fill="#d6d6d6" d="M 98.902344 96.261719 C 98.902344 96.542969 98.851562 96.8125 98.742188 97.070312 C 98.632812 97.332031 98.480469 97.558594 98.28125 97.757812 C 98.085938 97.957031 97.855469 98.109375 97.597656 98.21875 C 97.335938 98.324219 97.066406 98.378906 96.785156 98.378906 C 96.503906 98.378906 96.234375 98.324219 95.972656 98.21875 C 95.714844 98.109375 95.484375 97.957031 95.289062 97.757812 C 95.089844 97.558594 94.9375 97.332031 94.828125 97.070312 C 94.71875 96.8125 94.667969 96.542969 94.667969 96.261719 C 94.667969 95.980469 94.71875 95.710938 94.828125 95.449219 C 94.9375 95.191406 95.089844 94.960938 95.289062 94.761719 C 95.484375 94.5625 95.714844 94.410156 95.972656 94.304688 C 96.234375 94.195312 96.503906 94.144531 96.785156 94.144531 C 97.066406 94.144531 97.335938 94.195312 97.597656 94.304688 C 97.855469 94.410156 98.085938 94.5625 98.28125 94.761719 C 98.480469 94.960938 98.632812 95.191406 98.742188 95.449219 C 98.851562 95.710938 98.902344 95.980469 98.902344 96.261719 Z M 98.902344 96.261719 " fill-opacity="1" fill-rule="nonzero"/><path fill="#d6d6d6" d="M 45.105469 15.566406 C 45.105469 15.847656 45.054688 16.117188 44.945312 16.375 C 44.839844 16.636719 44.6875 16.867188 44.488281 17.0625 C 44.289062 17.261719 44.058594 17.414062 43.800781 17.523438 C 43.539062 17.628906 43.269531 17.683594 42.988281 17.683594 C 42.707031 17.683594 42.4375 17.628906 42.179688 17.523438 C 41.917969 17.414062 41.691406 17.261719 41.492188 17.0625 C 41.292969 16.867188 41.140625 16.636719 41.03125 16.375 C 40.925781 16.117188 40.871094 15.847656 40.871094 15.566406 C 40.871094 15.285156 40.925781 15.015625 41.03125 14.753906 C 41.140625 14.496094 41.292969 14.265625 41.492188 14.066406 C 41.691406 13.871094 41.917969 13.714844 42.179688 13.609375 C 42.4375 13.5 42.707031 13.449219 42.988281 13.449219 C 43.269531 13.449219 43.539062 13.5 43.800781 13.609375 C 44.058594 13.714844 44.289062 13.871094 44.488281 14.066406 C 44.6875 14.265625 44.839844 14.496094 44.945312 14.753906 C 45.054688 15.015625 45.105469 15.285156 45.105469 15.566406 Z M 45.105469 15.566406 " fill-opacity="1" fill-rule="nonzero"/><path fill="#d6d6d6" d="M 139.25 41.664062 C 139.25 41.945312 139.199219 42.214844 139.089844 42.476562 C 138.984375 42.734375 138.828125 42.964844 138.632812 43.160156 C 138.433594 43.359375 138.203125 43.511719 137.945312 43.621094 C 137.683594 43.730469 137.414062 43.78125 137.132812 43.78125 C 136.851562 43.78125 136.582031 43.730469 136.324219 43.621094 C 136.0625 43.511719 135.832031 43.359375 135.636719 43.160156 C 135.4375 42.964844 135.285156 42.734375 135.175781 42.476562 C 135.070312 42.214844 135.015625 41.945312 135.015625 41.664062 C 135.015625 41.382812 135.070312 41.113281 135.175781 40.855469 C 135.285156 40.59375 135.4375 40.363281 135.636719 40.167969 C 135.832031 39.96875 136.0625 39.816406 136.324219 39.707031 C 136.582031 39.601562 136.851562 39.546875 137.132812 39.546875 C 137.414062 39.546875 137.683594 39.601562 137.945312 39.707031 C 138.203125 39.816406 138.433594 39.96875 138.632812 40.167969 C 138.828125 40.363281 138.984375 40.59375 139.089844 40.855469 C 139.199219 41.113281 139.25 41.382812 139.25 41.664062 Z M 139.25 41.664062 " fill-opacity="1" fill-rule="nonzero"/><path fill="#d6d6d6" d="M 98.902344 69.363281 C 98.902344 69.644531 98.851562 69.914062 98.742188 70.175781 C 98.632812 70.433594 98.480469 70.664062 98.28125 70.863281 C 98.085938 71.058594 97.855469 71.214844 97.597656 71.320312 C 97.335938 71.429688 97.066406 71.480469 96.785156 71.480469 C 96.503906 71.480469 96.234375 71.429688 95.972656 71.320312 C 95.714844 71.214844 95.484375 71.058594 95.289062 70.863281 C 95.089844 70.664062 94.9375 70.433594 94.828125 70.175781 C 94.71875 69.914062 94.667969 69.644531 94.667969 69.363281 C 94.667969 69.082031 94.71875 68.8125 94.828125 68.554688 C 94.9375 68.292969 95.089844 68.0625 95.289062 67.867188 C 95.484375 67.667969 95.714844 67.515625 95.972656 67.40625 C 96.234375 67.300781 96.503906 67.246094 96.785156 67.246094 C 97.066406 67.246094 97.335938 67.300781 97.597656 67.40625 C 97.855469 67.515625 98.085938 67.667969 98.28125 67.867188 C 98.480469 68.0625 98.632812 68.292969 98.742188 68.554688 C 98.851562 68.8125 98.902344 69.082031 98.902344 69.363281 Z M 98.902344 69.363281 " fill-opacity="1" fill-rule="nonzero"/><path fill="#d6d6d6" d="M 72.007812 29.015625 C 72.007812 29.296875 71.953125 29.566406 71.84375 29.824219 C 71.738281 30.085938 71.585938 30.316406 71.386719 30.511719 C 71.1875 30.710938 70.957031 30.863281 70.699219 30.972656 C 70.4375 31.078125 70.167969 31.132812 69.886719 31.132812 C 69.605469 31.132812 69.335938 31.078125 69.078125 30.972656 C 68.816406 30.863281 68.589844 30.710938 68.390625 30.511719 C 68.191406 30.316406 68.039062 30.085938 67.929688 29.824219 C 67.824219 29.566406 67.769531 29.296875 67.769531 29.015625 C 67.769531 28.734375 67.824219 28.464844 67.929688 28.203125 C 68.039062 27.945312 68.191406 27.714844 68.390625 27.519531 C 68.589844 27.320312 68.816406 27.164062 69.078125 27.058594 C 69.335938 26.949219 69.605469 26.898438 69.886719 26.898438 C 70.167969 26.898438 70.4375 26.949219 70.699219 27.058594 C 70.957031 27.164062 71.1875 27.320312 71.386719 27.519531 C 71.585938 27.714844 71.738281 27.945312 71.84375 28.203125 C 71.953125 28.464844 72.007812 28.734375 72.007812 29.015625 Z M 72.007812 29.015625 " fill-opacity="1" fill-rule="nonzero"/><path fill="#d6d6d6" d="M 85.457031 2.117188 C 85.457031 2.398438 85.402344 2.667969 85.292969 2.929688 C 85.1875 3.1875 85.035156 3.417969 84.835938 3.617188 C 84.636719 3.816406 84.40625 3.96875 84.148438 4.074219 C 83.886719 4.183594 83.617188 4.238281 83.335938 4.238281 C 83.054688 4.238281 82.785156 4.183594 82.527344 4.074219 C 82.265625 3.96875 82.039062 3.816406 81.839844 3.617188 C 81.640625 3.417969 81.488281 3.1875 81.378906 2.929688 C 81.273438 2.667969 81.21875 2.398438 81.21875 2.117188 C 81.21875 1.835938 81.273438 1.566406 81.378906 1.308594 C 81.488281 1.046875 81.640625 0.820312 81.839844 0.621094 C 82.039062 0.421875 82.265625 0.269531 82.527344 0.160156 C 82.785156 0.0546875 83.054688 0 83.335938 0 C 83.617188 0 83.886719 0.0546875 84.148438 0.160156 C 84.40625 0.269531 84.636719 0.421875 84.835938 0.621094 C 85.035156 0.820312 85.1875 1.046875 85.292969 1.308594 C 85.402344 1.566406 85.457031 1.835938 85.457031 2.117188 Z M 85.457031 2.117188 " fill-opacity="1" fill-rule="nonzero"/><path fill="#d6d6d6" d="M 85.457031 136.609375 C 85.457031 136.890625 85.402344 137.160156 85.292969 137.417969 C 85.1875 137.679688 85.035156 137.90625 84.835938 138.105469 C 84.636719 138.304688 84.40625 138.457031 84.148438 138.566406 C 83.886719 138.671875 83.617188 138.726562 83.335938 138.726562 C 83.054688 138.726562 82.785156 138.671875 82.527344 138.566406 C 82.265625 138.457031 82.039062 138.304688 81.839844 138.105469 C 81.640625 137.90625 81.488281 137.679688 81.378906 137.417969 C 81.273438 137.160156 81.21875 136.890625 81.21875 136.609375 C 81.21875 136.328125 81.273438 136.058594 81.378906 135.796875 C 81.488281 135.539062 81.640625 135.308594 81.839844 135.109375 C 82.039062 134.914062 82.265625 134.757812 82.527344 134.652344 C 82.785156 134.542969 83.054688 134.492188 83.335938 134.492188 C 83.617188 134.492188 83.886719 134.542969 84.148438 134.652344 C 84.40625 134.757812 84.636719 134.914062 84.835938 135.109375 C 85.035156 135.308594 85.1875 135.539062 85.292969 135.796875 C 85.402344 136.058594 85.457031 136.328125 85.457031 136.609375 Z M 85.457031 136.609375 " fill-opacity="1" fill-rule="nonzero"/><path fill="#d6d6d6" d="M 85.457031 163.507812 C 85.457031 163.785156 85.402344 164.058594 85.292969 164.316406 C 85.1875 164.578125 85.035156 164.804688 84.835938 165.003906 C 84.636719 165.203125 84.40625 165.355469 84.148438 165.464844 C 83.886719 165.570312 83.617188 165.625 83.335938 165.625 C 83.054688 165.625 82.785156 165.570312 82.527344 165.464844 C 82.265625 165.355469 82.039062 165.203125 81.839844 165.003906 C 81.640625 164.804688 81.488281 164.578125 81.378906 164.316406 C 81.273438 164.058594 81.21875 163.785156 81.21875 163.507812 C 81.21875 163.226562 81.273438 162.953125 81.378906 162.695312 C 81.488281 162.4375 81.640625 162.207031 81.839844 162.007812 C 82.039062 161.808594 82.265625 161.65625 82.527344 161.550781 C 82.785156 161.441406 83.054688 161.386719 83.335938 161.386719 C 83.617188 161.386719 83.886719 161.441406 84.148438 161.550781 C 84.40625 161.65625 84.636719 161.808594 84.835938 162.007812 C 85.035156 162.207031 85.1875 162.4375 85.292969 162.695312 C 85.402344 162.953125 85.457031 163.226562 85.457031 163.507812 Z M 85.457031 163.507812 " fill-opacity="1" fill-rule="nonzero"/><path fill="#d6d6d6" d="M 18.210938 217.300781 C 18.210938 217.582031 18.15625 217.851562 18.050781 218.113281 C 17.941406 218.371094 17.789062 218.601562 17.589844 218.800781 C 17.390625 219 17.160156 219.152344 16.902344 219.257812 C 16.644531 219.367188 16.371094 219.421875 16.09375 219.421875 C 15.8125 219.421875 15.539062 219.367188 15.28125 219.257812 C 15.023438 219.152344 14.792969 219 14.59375 218.800781 C 14.394531 218.601562 14.242188 218.371094 14.136719 218.113281 C 14.027344 217.851562 13.972656 217.582031 13.972656 217.300781 C 13.972656 217.019531 14.027344 216.75 14.136719 216.492188 C 14.242188 216.230469 14.394531 216.003906 14.59375 215.804688 C 14.792969 215.605469 15.023438 215.453125 15.28125 215.34375 C 15.539062 215.238281 15.8125 215.183594 16.09375 215.183594 C 16.371094 215.183594 16.644531 215.238281 16.902344 215.34375 C 17.160156 215.453125 17.390625 215.605469 17.589844 215.804688 C 17.789062 216.003906 17.941406 216.230469 18.050781 216.492188 C 18.15625 216.75 18.210938 217.019531 18.210938 217.300781 Z M 18.210938 217.300781 " fill-opacity="1" fill-rule="nonzero"/><path fill="#d6d6d6" d="M 18.210938 203.855469 C 18.210938 204.136719 18.15625 204.40625 18.050781 204.664062 C 17.941406 204.925781 17.789062 205.152344 17.589844 205.351562 C 17.390625 205.550781 17.160156 205.703125 16.902344 205.8125 C 16.644531 205.917969 16.371094 205.972656 16.09375 205.972656 C 15.8125 205.972656 15.539062 205.917969 15.28125 205.8125 C 15.023438 205.703125 14.792969 205.550781 14.59375 205.351562 C 14.394531 205.152344 14.242188 204.925781 14.136719 204.664062 C 14.027344 204.40625 13.972656 204.136719 13.972656 203.855469 C 13.972656 203.574219 14.027344 203.304688 14.136719 203.042969 C 14.242188 202.785156 14.394531 202.554688 14.59375 202.355469 C 14.792969 202.15625 15.023438 202.003906 15.28125 201.898438 C 15.539062 201.789062 15.8125 201.734375 16.09375 201.734375 C 16.371094 201.734375 16.644531 201.789062 16.902344 201.898438 C 17.160156 202.003906 17.390625 202.15625 17.589844 202.355469 C 17.789062 202.554688 17.941406 202.785156 18.050781 203.042969 C 18.15625 203.304688 18.210938 203.574219 18.210938 203.855469 Z M 18.210938 203.855469 " fill-opacity="1" fill-rule="nonzero"/><path fill="#d6d6d6" d="M 45.105469 123.160156 C 45.105469 123.441406 45.054688 123.710938 44.945312 123.96875 C 44.839844 124.230469 44.6875 124.457031 44.488281 124.65625 C 44.289062 124.855469 44.058594 125.007812 43.800781 125.117188 C 43.539062 125.222656 43.269531 125.277344 42.988281 125.277344 C 42.707031 125.277344 42.4375 125.222656 42.179688 125.117188 C 41.917969 125.007812 41.691406 124.855469 41.492188 124.65625 C 41.292969 124.457031 41.140625 124.230469 41.03125 123.96875 C 40.925781 123.710938 40.871094 123.441406 40.871094 123.160156 C 40.871094 122.878906 40.925781 122.609375 41.03125 122.347656 C 41.140625 122.089844 41.292969 121.859375 41.492188 121.660156 C 41.691406 121.464844 41.917969 121.308594 42.179688 121.203125 C 42.4375 121.09375 42.707031 121.042969 42.988281 121.042969 C 43.269531 121.042969 43.539062 121.09375 43.800781 121.203125 C 44.058594 121.308594 44.289062 121.464844 44.488281 121.660156 C 44.6875 121.859375 44.839844 122.089844 44.945312 122.347656 C 45.054688 122.609375 45.105469 122.878906 45.105469 123.160156 Z M 45.105469 123.160156 " fill-opacity="1" fill-rule="nonzero"/><path fill="#d6d6d6" d="M 18.210938 176.957031 C 18.210938 177.238281 18.15625 177.507812 18.050781 177.765625 C 17.941406 178.027344 17.789062 178.253906 17.589844 178.453125 C 17.390625 178.652344 17.160156 178.804688 16.902344 178.914062 C 16.644531 179.019531 16.371094 179.074219 16.09375 179.074219 C 15.8125 179.074219 15.539062 179.019531 15.28125 178.914062 C 15.023438 178.804688 14.792969 178.652344 14.59375 178.453125 C 14.394531 178.253906 14.242188 178.027344 14.136719 177.765625 C 14.027344 177.507812 13.972656 177.238281 13.972656 176.957031 C 13.972656 176.675781 14.027344 176.40625 14.136719 176.144531 C 14.242188 175.886719 14.394531 175.65625 14.59375 175.457031 C 14.792969 175.257812 15.023438 175.105469 15.28125 175 C 15.539062 174.890625 15.8125 174.835938 16.09375 174.835938 C 16.371094 174.835938 16.644531 174.890625 16.902344 175 C 17.160156 175.105469 17.390625 175.257812 17.589844 175.457031 C 17.789062 175.65625 17.941406 175.886719 18.050781 176.144531 C 18.15625 176.40625 18.210938 176.675781 18.210938 176.957031 Z M 18.210938 176.957031 " fill-opacity="1" fill-rule="nonzero"/><g clip-path="url(#8f25eca723)"><path fill="#d6d6d6" d="M 4.761719 136.609375 C 4.761719 136.890625 4.707031 137.160156 4.597656 137.417969 C 4.492188 137.679688 4.339844 137.90625 4.140625 138.105469 C 3.941406 138.304688 3.710938 138.457031 3.453125 138.566406 C 3.195312 138.671875 2.921875 138.726562 2.640625 138.726562 C 2.363281 138.726562 2.089844 138.671875 1.832031 138.566406 C 1.574219 138.457031 1.34375 138.304688 1.144531 138.105469 C 0.945312 137.90625 0.792969 137.679688 0.6875 137.417969 C 0.578125 137.160156 0.523438 136.890625 0.523438 136.609375 C 0.523438 136.328125 0.578125 136.058594 0.6875 135.796875 C 0.792969 135.539062 0.945312 135.308594 1.144531 135.109375 C 1.34375 134.914062 1.574219 134.757812 1.832031 134.652344 C 2.089844 134.542969 2.363281 134.492188 2.640625 134.492188 C 2.921875 134.492188 3.195312 134.542969 3.453125 134.652344 C 3.710938 134.757812 3.941406 134.914062 4.140625 135.109375 C 4.339844 135.308594 4.492188 135.539062 4.597656 135.796875 C 4.707031 136.058594 4.761719 136.328125 4.761719 136.609375 Z M 4.761719 136.609375 " fill-opacity="1" fill-rule="nonzero"/></g><g clip-path="url(#f57a588fed)"><path fill="#d6d6d6" d="M 4.761719 123.160156 C 4.761719 123.441406 4.707031 123.710938 4.597656 123.96875 C 4.492188 124.230469 4.339844 124.457031 4.140625 124.65625 C 3.941406 124.855469 3.710938 125.007812 3.453125 125.117188 C 3.195312 125.222656 2.921875 125.277344 2.640625 125.277344 C 2.363281 125.277344 2.089844 125.222656 1.832031 125.117188 C 1.574219 125.007812 1.34375 124.855469 1.144531 124.65625 C 0.945312 124.457031 0.792969 124.230469 0.6875 123.96875 C 0.578125 123.710938 0.523438 123.441406 0.523438 123.160156 C 0.523438 122.878906 0.578125 122.609375 0.6875 122.347656 C 0.792969 122.089844 0.945312 121.859375 1.144531 121.660156 C 1.34375 121.464844 1.574219 121.308594 1.832031 121.203125 C 2.089844 121.09375 2.363281 121.042969 2.640625 121.042969 C 2.921875 121.042969 3.195312 121.09375 3.453125 121.203125 C 3.710938 121.308594 3.941406 121.464844 4.140625 121.660156 C 4.339844 121.859375 4.492188 122.089844 4.597656 122.347656 C 4.707031 122.609375 4.761719 122.878906 4.761719 123.160156 Z M 4.761719 123.160156 " fill-opacity="1" fill-rule="nonzero"/></g><g clip-path="url(#fa45b5d55b)"><path fill="#d6d6d6" d="M 2.640625 221.890625 C 2.316406 221.890625 2 221.828125 1.695312 221.703125 C 1.394531 221.578125 1.125 221.398438 0.894531 221.167969 C 0.664062 220.9375 0.484375 220.667969 0.359375 220.367188 C 0.234375 220.0625 0.171875 219.746094 0.171875 219.421875 C 0.171875 219.09375 0.234375 218.777344 0.359375 218.472656 C 0.484375 218.171875 0.664062 217.90625 0.894531 217.671875 C 1.125 217.441406 1.394531 217.261719 1.695312 217.136719 C 2 217.011719 2.316406 216.949219 2.640625 216.949219 C 2.96875 216.949219 3.285156 217.011719 3.589844 217.136719 C 3.890625 217.261719 4.160156 217.441406 4.390625 217.671875 C 4.621094 217.90625 4.800781 218.171875 4.925781 218.472656 C 5.050781 218.777344 5.113281 219.09375 5.113281 219.421875 C 5.113281 219.746094 5.050781 220.0625 4.925781 220.367188 C 4.800781 220.667969 4.621094 220.933594 4.390625 221.167969 C 4.15625 221.398438 3.890625 221.578125 3.585938 221.703125 C 3.285156 221.828125 2.96875 221.890625 2.640625 221.890625 Z M 2.640625 217.65625 C 2.410156 217.65625 2.183594 217.699219 1.96875 217.789062 C 1.75 217.878906 1.558594 218.007812 1.394531 218.171875 C 1.230469 218.335938 1.101562 218.527344 1.011719 218.746094 C 0.921875 218.960938 0.878906 219.1875 0.878906 219.421875 C 0.878906 219.65625 0.921875 219.878906 1.011719 220.097656 C 1.101562 220.3125 1.230469 220.503906 1.394531 220.667969 C 1.558594 220.835938 1.75 220.960938 1.96875 221.050781 C 2.183594 221.140625 2.410156 221.183594 2.640625 221.183594 C 2.875 221.183594 3.101562 221.140625 3.316406 221.050781 C 3.535156 220.960938 3.726562 220.835938 3.890625 220.667969 C 4.054688 220.503906 4.183594 220.3125 4.273438 220.097656 C 4.363281 219.878906 4.40625 219.65625 4.40625 219.421875 C 4.40625 219.1875 4.363281 218.960938 4.273438 218.746094 C 4.183594 218.527344 4.054688 218.339844 3.890625 218.171875 C 3.722656 218.007812 3.535156 217.878906 3.316406 217.789062 C 3.101562 217.699219 2.875 217.65625 2.640625 217.65625 Z M 2.640625 217.65625 " fill-opacity="1" fill-rule="nonzero"/></g><g clip-path="url(#7a280cf699)"><path fill="#d6d6d6" d="M 2.640625 114.300781 C 2.316406 114.300781 2 114.238281 1.695312 114.113281 C 1.394531 113.984375 1.125 113.808594 0.894531 113.574219 C 0.664062 113.34375 0.484375 113.078125 0.359375 112.773438 C 0.234375 112.472656 0.171875 112.15625 0.171875 111.828125 C 0.171875 111.5 0.234375 111.183594 0.359375 110.882812 C 0.484375 110.578125 0.664062 110.3125 0.894531 110.082031 C 1.125 109.847656 1.394531 109.671875 1.695312 109.546875 C 2 109.417969 2.316406 109.355469 2.640625 109.355469 C 2.96875 109.355469 3.285156 109.417969 3.589844 109.546875 C 3.890625 109.671875 4.160156 109.847656 4.390625 110.082031 C 4.621094 110.3125 4.800781 110.578125 4.925781 110.882812 C 5.050781 111.183594 5.113281 111.5 5.113281 111.828125 C 5.113281 112.15625 5.050781 112.472656 4.925781 112.773438 C 4.800781 113.078125 4.621094 113.34375 4.390625 113.574219 C 4.15625 113.808594 3.890625 113.984375 3.585938 114.109375 C 3.285156 114.234375 2.96875 114.300781 2.640625 114.300781 Z M 2.640625 110.0625 C 2.410156 110.0625 2.183594 110.109375 1.96875 110.199219 C 1.75 110.289062 1.558594 110.414062 1.394531 110.582031 C 1.230469 110.746094 1.101562 110.9375 1.011719 111.152344 C 0.921875 111.367188 0.878906 111.59375 0.878906 111.828125 C 0.878906 112.0625 0.921875 112.289062 1.011719 112.503906 C 1.101562 112.71875 1.230469 112.910156 1.394531 113.078125 C 1.558594 113.242188 1.75 113.371094 1.96875 113.460938 C 2.183594 113.546875 2.410156 113.59375 2.640625 113.59375 C 2.875 113.59375 3.101562 113.546875 3.316406 113.460938 C 3.535156 113.371094 3.726562 113.242188 3.890625 113.078125 C 4.054688 112.910156 4.183594 112.71875 4.273438 112.503906 C 4.363281 112.289062 4.40625 112.0625 4.40625 111.828125 C 4.40625 111.59375 4.363281 111.371094 4.273438 111.152344 C 4.183594 110.9375 4.054688 110.746094 3.890625 110.582031 C 3.722656 110.414062 3.535156 110.289062 3.316406 110.199219 C 3.101562 110.109375 2.875 110.0625 2.640625 110.0625 Z M 2.640625 110.0625 " fill-opacity="1" fill-rule="nonzero"/></g><path fill="#d6d6d6" d="M 16.058594 100.851562 C 15.730469 100.851562 15.414062 100.789062 15.113281 100.664062 C 14.808594 100.535156 14.542969 100.359375 14.3125 100.125 C 14.078125 99.894531 13.898438 99.628906 13.773438 99.324219 C 13.648438 99.023438 13.585938 98.707031 13.585938 98.378906 C 13.585938 98.050781 13.648438 97.734375 13.773438 97.433594 C 13.898438 97.128906 14.078125 96.863281 14.3125 96.632812 C 14.542969 96.398438 14.808594 96.222656 15.113281 96.097656 C 15.414062 95.96875 15.730469 95.90625 16.058594 95.90625 C 16.386719 95.90625 16.699219 95.96875 17.003906 96.097656 C 17.304688 96.222656 17.574219 96.398438 17.804688 96.632812 C 18.039062 96.863281 18.214844 97.128906 18.339844 97.433594 C 18.464844 97.734375 18.527344 98.050781 18.527344 98.378906 C 18.527344 98.707031 18.464844 99.023438 18.339844 99.324219 C 18.214844 99.625 18.035156 99.894531 17.804688 100.125 C 17.574219 100.355469 17.304688 100.535156 17.003906 100.660156 C 16.699219 100.785156 16.386719 100.851562 16.058594 100.851562 Z M 16.058594 96.613281 C 15.824219 96.613281 15.597656 96.660156 15.382812 96.75 C 15.167969 96.835938 14.976562 96.964844 14.808594 97.132812 C 14.644531 97.296875 14.515625 97.488281 14.425781 97.703125 C 14.335938 97.917969 14.292969 98.144531 14.292969 98.378906 C 14.292969 98.613281 14.335938 98.839844 14.425781 99.054688 C 14.515625 99.269531 14.644531 99.460938 14.808594 99.628906 C 14.976562 99.792969 15.167969 99.921875 15.382812 100.011719 C 15.597656 100.097656 15.824219 100.144531 16.058594 100.144531 C 16.292969 100.144531 16.515625 100.097656 16.734375 100.011719 C 16.949219 99.921875 17.140625 99.792969 17.304688 99.628906 C 17.472656 99.460938 17.597656 99.269531 17.6875 99.054688 C 17.777344 98.839844 17.824219 98.613281 17.824219 98.378906 C 17.824219 98.144531 17.777344 97.921875 17.6875 97.703125 C 17.597656 97.488281 17.472656 97.296875 17.304688 97.132812 C 17.140625 96.964844 16.949219 96.839844 16.734375 96.75 C 16.515625 96.660156 16.292969 96.613281 16.058594 96.613281 Z M 16.058594 96.613281 " fill-opacity="1" fill-rule="nonzero"/><path fill="#d6d6d6" d="M 56.4375 109.691406 C 56.109375 109.691406 55.796875 109.628906 55.492188 109.503906 C 55.191406 109.378906 54.921875 109.199219 54.691406 108.96875 C 54.460938 108.738281 54.28125 108.46875 54.15625 108.167969 C 54.03125 107.863281 53.96875 107.550781 53.96875 107.222656 C 53.96875 106.894531 54.03125 106.578125 54.15625 106.277344 C 54.28125 105.972656 54.460938 105.707031 54.691406 105.472656 C 54.921875 105.242188 55.191406 105.0625 55.492188 104.9375 C 55.796875 104.8125 56.109375 104.75 56.4375 104.75 C 56.765625 104.75 57.082031 104.8125 57.382812 104.9375 C 57.6875 105.0625 57.953125 105.242188 58.1875 105.472656 C 58.417969 105.707031 58.597656 105.972656 58.722656 106.277344 C 58.847656 106.578125 58.910156 106.894531 58.910156 107.222656 C 58.910156 107.550781 58.847656 107.863281 58.722656 108.167969 C 58.59375 108.46875 58.417969 108.738281 58.183594 108.96875 C 57.953125 109.199219 57.6875 109.378906 57.382812 109.503906 C 57.082031 109.628906 56.765625 109.691406 56.4375 109.691406 Z M 56.4375 105.457031 C 56.203125 105.457031 55.980469 105.5 55.761719 105.589844 C 55.546875 105.679688 55.355469 105.808594 55.191406 105.972656 C 55.023438 106.140625 54.898438 106.332031 54.808594 106.546875 C 54.71875 106.761719 54.671875 106.988281 54.671875 107.222656 C 54.671875 107.457031 54.71875 107.679688 54.808594 107.898438 C 54.898438 108.113281 55.023438 108.304688 55.191406 108.46875 C 55.355469 108.636719 55.546875 108.761719 55.761719 108.851562 C 55.980469 108.941406 56.203125 108.988281 56.4375 108.988281 C 56.671875 108.988281 56.898438 108.941406 57.113281 108.851562 C 57.332031 108.761719 57.519531 108.636719 57.6875 108.46875 C 57.851562 108.304688 57.980469 108.113281 58.070312 107.898438 C 58.160156 107.679688 58.203125 107.457031 58.203125 107.222656 C 58.203125 106.988281 58.160156 106.761719 58.070312 106.546875 C 57.980469 106.332031 57.851562 106.140625 57.6875 105.972656 C 57.519531 105.808594 57.328125 105.679688 57.113281 105.59375 C 56.898438 105.503906 56.671875 105.457031 56.4375 105.457031 Z M 56.4375 105.457031 " fill-opacity="1" fill-rule="nonzero"/><path fill="#d6d6d6" d="M 27.421875 219.773438 C 27.09375 219.773438 26.777344 219.710938 26.476562 219.585938 C 26.171875 219.460938 25.90625 219.28125 25.675781 219.050781 C 25.441406 218.816406 25.265625 218.550781 25.136719 218.246094 C 25.011719 217.945312 24.949219 217.628906 24.949219 217.300781 C 24.949219 216.972656 25.011719 216.660156 25.136719 216.355469 C 25.265625 216.054688 25.441406 215.785156 25.675781 215.554688 C 25.90625 215.324219 26.171875 215.144531 26.476562 215.019531 C 26.777344 214.894531 27.09375 214.832031 27.421875 214.832031 C 27.75 214.832031 28.066406 214.894531 28.367188 215.019531 C 28.671875 215.144531 28.9375 215.324219 29.167969 215.554688 C 29.402344 215.785156 29.578125 216.054688 29.703125 216.355469 C 29.832031 216.660156 29.894531 216.972656 29.894531 217.300781 C 29.890625 217.628906 29.828125 217.945312 29.703125 218.246094 C 29.578125 218.550781 29.398438 218.816406 29.167969 219.046875 C 28.9375 219.28125 28.667969 219.457031 28.367188 219.585938 C 28.0625 219.710938 27.75 219.773438 27.421875 219.773438 Z M 27.421875 215.535156 C 27.1875 215.535156 26.960938 215.582031 26.746094 215.671875 C 26.53125 215.761719 26.339844 215.886719 26.171875 216.054688 C 26.007812 216.21875 25.878906 216.410156 25.789062 216.625 C 25.703125 216.84375 25.65625 217.066406 25.65625 217.300781 C 25.65625 217.535156 25.703125 217.761719 25.789062 217.976562 C 25.878906 218.195312 26.007812 218.382812 26.171875 218.550781 C 26.339844 218.714844 26.53125 218.84375 26.746094 218.933594 C 26.960938 219.023438 27.1875 219.066406 27.421875 219.066406 C 27.65625 219.066406 27.878906 219.023438 28.097656 218.933594 C 28.3125 218.84375 28.503906 218.714844 28.667969 218.550781 C 28.835938 218.382812 28.960938 218.195312 29.050781 217.976562 C 29.140625 217.761719 29.1875 217.535156 29.1875 217.300781 C 29.1875 217.066406 29.140625 216.84375 29.050781 216.628906 C 28.960938 216.410156 28.835938 216.21875 28.667969 216.054688 C 28.503906 215.890625 28.3125 215.761719 28.097656 215.671875 C 27.878906 215.582031 27.65625 215.539062 27.421875 215.535156 Z M 27.421875 215.535156 " fill-opacity="1" fill-rule="nonzero"/><path fill="#d6d6d6" d="M 67.769531 219.773438 C 67.441406 219.773438 67.125 219.710938 66.824219 219.585938 C 66.519531 219.460938 66.253906 219.28125 66.023438 219.050781 C 65.789062 218.816406 65.613281 218.550781 65.488281 218.246094 C 65.359375 217.945312 65.296875 217.628906 65.296875 217.300781 C 65.296875 216.972656 65.359375 216.660156 65.488281 216.355469 C 65.613281 216.054688 65.789062 215.785156 66.023438 215.554688 C 66.253906 215.324219 66.519531 215.144531 66.824219 215.019531 C 67.125 214.894531 67.441406 214.832031 67.769531 214.832031 C 68.097656 214.832031 68.414062 214.894531 68.714844 215.019531 C 69.019531 215.144531 69.285156 215.324219 69.515625 215.554688 C 69.75 215.785156 69.925781 216.054688 70.054688 216.355469 C 70.179688 216.660156 70.242188 216.972656 70.242188 217.300781 C 70.242188 217.628906 70.175781 217.945312 70.050781 218.246094 C 69.925781 218.550781 69.746094 218.816406 69.515625 219.046875 C 69.285156 219.28125 69.015625 219.457031 68.714844 219.585938 C 68.414062 219.710938 68.097656 219.773438 67.769531 219.773438 Z M 67.769531 215.535156 C 67.535156 215.535156 67.308594 215.582031 67.09375 215.671875 C 66.878906 215.761719 66.6875 215.886719 66.519531 216.054688 C 66.355469 216.21875 66.226562 216.410156 66.140625 216.625 C 66.050781 216.84375 66.003906 217.066406 66.003906 217.300781 C 66.003906 217.535156 66.050781 217.761719 66.140625 217.976562 C 66.226562 218.195312 66.355469 218.382812 66.519531 218.550781 C 66.6875 218.714844 66.878906 218.84375 67.09375 218.933594 C 67.308594 219.023438 67.535156 219.066406 67.769531 219.066406 C 68.003906 219.066406 68.230469 219.023438 68.445312 218.933594 C 68.660156 218.84375 68.851562 218.714844 69.019531 218.550781 C 69.183594 218.382812 69.3125 218.195312 69.402344 217.976562 C 69.488281 217.761719 69.535156 217.535156 69.535156 217.300781 C 69.535156 217.066406 69.488281 216.84375 69.398438 216.628906 C 69.308594 216.410156 69.183594 216.21875 69.015625 216.054688 C 68.851562 215.890625 68.660156 215.761719 68.445312 215.671875 C 68.230469 215.582031 68.003906 215.539062 67.769531 215.535156 Z M 67.769531 215.535156 " fill-opacity="1" fill-rule="nonzero"/><g clip-path="url(#aa34b9efaf)"><path fill="#d6d6d6" d="M 260.292969 136.609375 C 260.292969 136.890625 260.238281 137.160156 260.132812 137.417969 C 260.023438 137.679688 259.871094 137.90625 259.671875 138.105469 C 259.472656 138.304688 259.246094 138.457031 258.984375 138.566406 C 258.726562 138.671875 258.457031 138.726562 258.175781 138.726562 C 257.894531 138.726562 257.625 138.671875 257.363281 138.566406 C 257.105469 138.457031 256.875 138.304688 256.675781 138.105469 C 256.476562 137.90625 256.324219 137.679688 256.21875 137.417969 C 256.109375 137.160156 256.054688 136.890625 256.054688 136.609375 C 256.054688 136.328125 256.109375 136.058594 256.21875 135.796875 C 256.324219 135.539062 256.476562 135.308594 256.675781 135.109375 C 256.875 134.914062 257.105469 134.757812 257.363281 134.652344 C 257.625 134.542969 257.894531 134.492188 258.175781 134.492188 C 258.457031 134.492188 258.726562 134.542969 258.984375 134.652344 C 259.246094 134.757812 259.472656 134.914062 259.671875 135.109375 C 259.871094 135.308594 260.023438 135.539062 260.132812 135.796875 C 260.238281 136.058594 260.292969 136.328125 260.292969 136.609375 Z M 260.292969 136.609375 " fill-opacity="1" fill-rule="nonzero"/></g><path fill="#d6d6d6" d="M 2.996094 217.300781 L 2.289062 217.300781 L 2.289062 163.359375 L 2.394531 163.257812 L 42.742188 122.910156 L 43.238281 123.410156 L 2.996094 163.652344 Z M 2.996094 217.300781 " fill-opacity="1" fill-rule="nonzero"/><path fill="#d6d6d6" d="M 2.890625 136.855469 L 2.394531 136.359375 L 42.84375 95.90625 L 69.742188 95.90625 L 96.535156 69.113281 L 97.035156 69.613281 L 70.035156 96.613281 L 43.136719 96.613281 Z M 2.890625 136.855469 " fill-opacity="1" fill-rule="nonzero"/><path fill="#d6d6d6" d="M 2.890625 123.410156 L 2.394531 122.910156 L 42.636719 82.667969 L 42.636719 55.765625 L 69.636719 28.765625 L 70.136719 29.265625 L 43.34375 56.058594 L 43.34375 82.957031 Z M 2.890625 123.410156 " fill-opacity="1" fill-rule="nonzero"/><path fill="#d6d6d6" d="M 16.339844 217.550781 L 15.84375 217.054688 L 56.292969 176.601562 L 110.089844 176.601562 L 150.332031 136.359375 L 150.832031 136.855469 L 110.382812 177.308594 L 56.585938 177.308594 Z M 16.339844 217.550781 " fill-opacity="1" fill-rule="nonzero"/><path fill="#d6d6d6" d="M 56.585938 217.65625 L 29.539062 217.65625 L 29.539062 216.949219 L 56.292969 216.949219 L 83.191406 190.050781 L 136.984375 190.050781 L 190.679688 136.359375 L 191.179688 136.855469 L 137.277344 190.757812 L 83.484375 190.757812 Z M 56.585938 217.65625 " fill-opacity="1" fill-rule="nonzero"/><path fill="#d6d6d6" d="M 16.339844 204.101562 L 15.84375 203.605469 L 69.535156 149.910156 L 69.535156 123.011719 L 96.535156 96.011719 L 97.035156 96.511719 L 70.242188 123.304688 L 70.242188 150.203125 Z M 16.339844 204.101562 " fill-opacity="1" fill-rule="nonzero"/><path fill="#d6d6d6" d="M 2.996094 109.710938 L 2.289062 109.710938 L 2.289062 55.765625 L 2.394531 55.664062 L 42.742188 15.316406 L 43.238281 15.816406 L 2.996094 56.058594 Z M 2.996094 109.710938 " fill-opacity="1" fill-rule="nonzero"/><path fill="#d6d6d6" d="M 16.445312 96.261719 L 15.738281 96.261719 L 15.738281 69.214844 L 15.84375 69.113281 L 83.085938 1.867188 L 83.585938 2.367188 L 16.445312 69.507812 Z M 16.445312 96.261719 " fill-opacity="1" fill-rule="nonzero"/><path fill="#d6d6d6" d="M 16.339844 177.207031 L 15.84375 176.707031 L 56.085938 136.460938 L 56.085938 109.710938 L 56.792969 109.710938 L 56.792969 136.753906 L 56.6875 136.855469 Z M 16.339844 177.207031 " fill-opacity="1" fill-rule="nonzero"/><path fill="#d6d6d6" d="M 83.585938 163.757812 L 83.085938 163.257812 L 136.78125 109.5625 L 136.78125 82.667969 L 150.332031 69.113281 L 150.832031 69.613281 L 137.484375 82.957031 L 137.484375 109.855469 Z M 83.585938 163.757812 " fill-opacity="1" fill-rule="nonzero"/><path fill="#d6d6d6" d="M 150.726562 217.65625 L 69.886719 217.65625 L 69.886719 216.949219 L 150.4375 216.949219 L 190.785156 176.601562 L 217.679688 176.601562 L 257.925781 136.359375 L 258.425781 136.855469 L 217.972656 177.308594 L 191.074219 177.308594 Z M 150.726562 217.65625 " fill-opacity="1" fill-rule="nonzero"/><path fill="#d6d6d6" d="M 191.28125 176.957031 L 190.574219 176.957031 L 190.574219 163.359375 L 231.027344 122.910156 L 231.527344 123.410156 L 191.28125 163.652344 Z M 191.28125 176.957031 " fill-opacity="1" fill-rule="nonzero"/><path fill="#d6d6d6" d="M 83.585938 136.855469 L 83.085938 136.359375 L 123.332031 96.117188 L 123.332031 55.765625 L 136.882812 42.214844 L 137.382812 42.714844 L 124.035156 56.058594 L 124.035156 96.40625 Z M 83.585938 136.855469 " fill-opacity="1" fill-rule="nonzero"/><path fill="#d6d6d6" d="M 152.699219 136.609375 C 152.699219 136.890625 152.648438 137.160156 152.539062 137.417969 C 152.433594 137.679688 152.277344 137.90625 152.082031 138.105469 C 151.882812 138.304688 151.652344 138.457031 151.394531 138.566406 C 151.132812 138.671875 150.863281 138.726562 150.582031 138.726562 C 150.300781 138.726562 150.03125 138.671875 149.773438 138.566406 C 149.511719 138.457031 149.285156 138.304688 149.085938 138.105469 C 148.886719 137.90625 148.734375 137.679688 148.625 137.417969 C 148.519531 137.160156 148.464844 136.890625 148.464844 136.609375 C 148.464844 136.328125 148.519531 136.058594 148.625 135.796875 C 148.734375 135.539062 148.886719 135.308594 149.085938 135.109375 C 149.285156 134.914062 149.511719 134.757812 149.773438 134.652344 C 150.03125 134.542969 150.300781 134.492188 150.582031 134.492188 C 150.863281 134.492188 151.132812 134.542969 151.394531 134.652344 C 151.652344 134.757812 151.882812 134.914062 152.082031 135.109375 C 152.277344 135.308594 152.433594 135.539062 152.539062 135.796875 C 152.648438 136.058594 152.699219 136.328125 152.699219 136.609375 Z M 152.699219 136.609375 " fill-opacity="1" fill-rule="nonzero"/><path fill="#d6d6d6" d="M 193.046875 136.609375 C 193.046875 136.890625 192.992188 137.160156 192.886719 137.417969 C 192.777344 137.679688 192.625 137.90625 192.425781 138.105469 C 192.226562 138.304688 192 138.457031 191.738281 138.566406 C 191.480469 138.671875 191.210938 138.726562 190.929688 138.726562 C 190.648438 138.726562 190.378906 138.671875 190.117188 138.566406 C 189.859375 138.457031 189.628906 138.304688 189.429688 138.105469 C 189.234375 137.90625 189.078125 137.679688 188.972656 137.417969 C 188.863281 137.160156 188.8125 136.890625 188.8125 136.609375 C 188.8125 136.328125 188.863281 136.058594 188.972656 135.796875 C 189.078125 135.539062 189.234375 135.308594 189.429688 135.109375 C 189.628906 134.914062 189.859375 134.757812 190.117188 134.652344 C 190.378906 134.542969 190.648438 134.492188 190.929688 134.492188 C 191.210938 134.492188 191.480469 134.542969 191.738281 134.652344 C 192 134.757812 192.226562 134.914062 192.425781 135.109375 C 192.625 135.308594 192.777344 135.539062 192.886719 135.796875 C 192.992188 136.058594 193.046875 136.328125 193.046875 136.609375 Z M 193.046875 136.609375 " fill-opacity="1" fill-rule="nonzero"/><path fill="#d6d6d6" d="M 233.394531 123.160156 C 233.394531 123.441406 233.339844 123.710938 233.234375 123.96875 C 233.125 124.230469 232.972656 124.457031 232.773438 124.65625 C 232.578125 124.855469 232.347656 125.007812 232.085938 125.117188 C 231.828125 125.222656 231.558594 125.277344 231.277344 125.277344 C 230.996094 125.277344 230.726562 125.222656 230.464844 125.117188 C 230.207031 125.007812 229.976562 124.855469 229.78125 124.65625 C 229.582031 124.457031 229.425781 124.230469 229.320312 123.96875 C 229.210938 123.710938 229.160156 123.441406 229.160156 123.160156 C 229.160156 122.878906 229.210938 122.609375 229.320312 122.347656 C 229.425781 122.089844 229.582031 121.859375 229.78125 121.660156 C 229.976562 121.464844 230.207031 121.308594 230.464844 121.203125 C 230.726562 121.09375 230.996094 121.042969 231.277344 121.042969 C 231.558594 121.042969 231.828125 121.09375 232.085938 121.203125 C 232.347656 121.308594 232.578125 121.464844 232.773438 121.660156 C 232.972656 121.859375 233.125 122.089844 233.234375 122.347656 C 233.339844 122.609375 233.394531 122.878906 233.394531 123.160156 Z M 233.394531 123.160156 " fill-opacity="1" fill-rule="nonzero"/><path fill="#d6d6d6" d="M 152.699219 69.363281 C 152.699219 69.644531 152.648438 69.914062 152.539062 70.175781 C 152.433594 70.433594 152.277344 70.664062 152.082031 70.863281 C 151.882812 71.058594 151.652344 71.214844 151.394531 71.320312 C 151.132812 71.429688 150.863281 71.480469 150.582031 71.480469 C 150.300781 71.480469 150.03125 71.429688 149.773438 71.320312 C 149.511719 71.214844 149.285156 71.058594 149.085938 70.863281 C 148.886719 70.664062 148.734375 70.433594 148.625 70.175781 C 148.519531 69.914062 148.464844 69.644531 148.464844 69.363281 C 148.464844 69.082031 148.519531 68.8125 148.625 68.554688 C 148.734375 68.292969 148.886719 68.0625 149.085938 67.867188 C 149.285156 67.667969 149.511719 67.515625 149.773438 67.40625 C 150.03125 67.300781 150.300781 67.246094 150.582031 67.246094 C 150.863281 67.246094 151.132812 67.300781 151.394531 67.40625 C 151.652344 67.515625 151.882812 67.667969 152.082031 67.867188 C 152.277344 68.0625 152.433594 68.292969 152.539062 68.554688 C 152.648438 68.8125 152.699219 69.082031 152.699219 69.363281 Z M 152.699219 69.363281 " fill-opacity="1" fill-rule="nonzero"/><path fill="#d6d6d6" d="M 98.902344 96.261719 C 98.902344 96.542969 98.851562 96.8125 98.742188 97.070312 C 98.632812 97.332031 98.480469 97.558594 98.28125 97.757812 C 98.085938 97.957031 97.855469 98.109375 97.597656 98.21875 C 97.335938 98.324219 97.066406 98.378906 96.785156 98.378906 C 96.503906 98.378906 96.234375 98.324219 95.972656 98.21875 C 95.714844 98.109375 95.484375 97.957031 95.289062 97.757812 C 95.089844 97.558594 94.9375 97.332031 94.828125 97.070312 C 94.71875 96.8125 94.667969 96.542969 94.667969 96.261719 C 94.667969 95.980469 94.71875 95.710938 94.828125 95.449219 C 94.9375 95.191406 95.089844 94.960938 95.289062 94.761719 C 95.484375 94.5625 95.714844 94.410156 95.972656 94.304688 C 96.234375 94.195312 96.503906 94.144531 96.785156 94.144531 C 97.066406 94.144531 97.335938 94.195312 97.597656 94.304688 C 97.855469 94.410156 98.085938 94.5625 98.28125 94.761719 C 98.480469 94.960938 98.632812 95.191406 98.742188 95.449219 C 98.851562 95.710938 98.902344 95.980469 98.902344 96.261719 Z M 98.902344 96.261719 " fill-opacity="1" fill-rule="nonzero"/><path fill="#d6d6d6" d="M 45.105469 15.566406 C 45.105469 15.847656 45.054688 16.117188 44.945312 16.375 C 44.839844 16.636719 44.6875 16.867188 44.488281 17.0625 C 44.289062 17.261719 44.058594 17.414062 43.800781 17.523438 C 43.539062 17.628906 43.269531 17.683594 42.988281 17.683594 C 42.707031 17.683594 42.4375 17.628906 42.179688 17.523438 C 41.917969 17.414062 41.691406 17.261719 41.492188 17.0625 C 41.292969 16.867188 41.140625 16.636719 41.03125 16.375 C 40.925781 16.117188 40.871094 15.847656 40.871094 15.566406 C 40.871094 15.285156 40.925781 15.015625 41.03125 14.753906 C 41.140625 14.496094 41.292969 14.265625 41.492188 14.066406 C 41.691406 13.871094 41.917969 13.714844 42.179688 13.609375 C 42.4375 13.5 42.707031 13.449219 42.988281 13.449219 C 43.269531 13.449219 43.539062 13.5 43.800781 13.609375 C 44.058594 13.714844 44.289062 13.871094 44.488281 14.066406 C 44.6875 14.265625 44.839844 14.496094 44.945312 14.753906 C 45.054688 15.015625 45.105469 15.285156 45.105469 15.566406 Z M 45.105469 15.566406 " fill-opacity="1" fill-rule="nonzero"/><path fill="#d6d6d6" d="M 139.25 41.664062 C 139.25 41.945312 139.199219 42.214844 139.089844 42.476562 C 138.984375 42.734375 138.828125 42.964844 138.632812 43.160156 C 138.433594 43.359375 138.203125 43.511719 137.945312 43.621094 C 137.683594 43.730469 137.414062 43.78125 137.132812 43.78125 C 136.851562 43.78125 136.582031 43.730469 136.324219 43.621094 C 136.0625 43.511719 135.832031 43.359375 135.636719 43.160156 C 135.4375 42.964844 135.285156 42.734375 135.175781 42.476562 C 135.070312 42.214844 135.015625 41.945312 135.015625 41.664062 C 135.015625 41.382812 135.070312 41.113281 135.175781 40.855469 C 135.285156 40.59375 135.4375 40.363281 135.636719 40.167969 C 135.832031 39.96875 136.0625 39.816406 136.324219 39.707031 C 136.582031 39.601562 136.851562 39.546875 137.132812 39.546875 C 137.414062 39.546875 137.683594 39.601562 137.945312 39.707031 C 138.203125 39.816406 138.433594 39.96875 138.632812 40.167969 C 138.828125 40.363281 138.984375 40.59375 139.089844 40.855469 C 139.199219 41.113281 139.25 41.382812 139.25 41.664062 Z M 139.25 41.664062 " fill-opacity="1" fill-rule="nonzero"/><path fill="#d6d6d6" d="M 98.902344 69.363281 C 98.902344 69.644531 98.851562 69.914062 98.742188 70.175781 C 98.632812 70.433594 98.480469 70.664062 98.28125 70.863281 C 98.085938 71.058594 97.855469 71.214844 97.597656 71.320312 C 97.335938 71.429688 97.066406 71.480469 96.785156 71.480469 C 96.503906 71.480469 96.234375 71.429688 95.972656 71.320312 C 95.714844 71.214844 95.484375 71.058594 95.289062 70.863281 C 95.089844 70.664062 94.9375 70.433594 94.828125 70.175781 C 94.71875 69.914062 94.667969 69.644531 94.667969 69.363281 C 94.667969 69.082031 94.71875 68.8125 94.828125 68.554688 C 94.9375 68.292969 95.089844 68.0625 95.289062 67.867188 C 95.484375 67.667969 95.714844 67.515625 95.972656 67.40625 C 96.234375 67.300781 96.503906 67.246094 96.785156 67.246094 C 97.066406 67.246094 97.335938 67.300781 97.597656 67.40625 C 97.855469 67.515625 98.085938 67.667969 98.28125 67.867188 C 98.480469 68.0625 98.632812 68.292969 98.742188 68.554688 C 98.851562 68.8125 98.902344 69.082031 98.902344 69.363281 Z M 98.902344 69.363281 " fill-opacity="1" fill-rule="nonzero"/><path fill="#d6d6d6" d="M 72.007812 29.015625 C 72.007812 29.296875 71.953125 29.566406 71.84375 29.824219 C 71.738281 30.085938 71.585938 30.316406 71.386719 30.511719 C 71.1875 30.710938 70.957031 30.863281 70.699219 30.972656 C 70.4375 31.078125 70.167969 31.132812 69.886719 31.132812 C 69.605469 31.132812 69.335938 31.078125 69.078125 30.972656 C 68.816406 30.863281 68.589844 30.710938 68.390625 30.511719 C 68.191406 30.316406 68.039062 30.085938 67.929688 29.824219 C 67.824219 29.566406 67.769531 29.296875 67.769531 29.015625 C 67.769531 28.734375 67.824219 28.464844 67.929688 28.203125 C 68.039062 27.945312 68.191406 27.714844 68.390625 27.519531 C 68.589844 27.320312 68.816406 27.164062 69.078125 27.058594 C 69.335938 26.949219 69.605469 26.898438 69.886719 26.898438 C 70.167969 26.898438 70.4375 26.949219 70.699219 27.058594 C 70.957031 27.164062 71.1875 27.320312 71.386719 27.519531 C 71.585938 27.714844 71.738281 27.945312 71.84375 28.203125 C 71.953125 28.464844 72.007812 28.734375 72.007812 29.015625 Z M 72.007812 29.015625 " fill-opacity="1" fill-rule="nonzero"/><path fill="#d6d6d6" d="M 85.457031 2.117188 C 85.457031 2.398438 85.402344 2.667969 85.292969 2.929688 C 85.1875 3.1875 85.035156 3.417969 84.835938 3.617188 C 84.636719 3.816406 84.40625 3.96875 84.148438 4.074219 C 83.886719 4.183594 83.617188 4.238281 83.335938 4.238281 C 83.054688 4.238281 82.785156 4.183594 82.527344 4.074219 C 82.265625 3.96875 82.039062 3.816406 81.839844 3.617188 C 81.640625 3.417969 81.488281 3.1875 81.378906 2.929688 C 81.273438 2.667969 81.21875 2.398438 81.21875 2.117188 C 81.21875 1.835938 81.273438 1.566406 81.378906 1.308594 C 81.488281 1.046875 81.640625 0.820312 81.839844 0.621094 C 82.039062 0.421875 82.265625 0.269531 82.527344 0.160156 C 82.785156 0.0546875 83.054688 0 83.335938 0 C 83.617188 0 83.886719 0.0546875 84.148438 0.160156 C 84.40625 0.269531 84.636719 0.421875 84.835938 0.621094 C 85.035156 0.820312 85.1875 1.046875 85.292969 1.308594 C 85.402344 1.566406 85.457031 1.835938 85.457031 2.117188 Z M 85.457031 2.117188 " fill-opacity="1" fill-rule="nonzero"/><path fill="#d6d6d6" d="M 85.457031 136.609375 C 85.457031 136.890625 85.402344 137.160156 85.292969 137.417969 C 85.1875 137.679688 85.035156 137.90625 84.835938 138.105469 C 84.636719 138.304688 84.40625 138.457031 84.148438 138.566406 C 83.886719 138.671875 83.617188 138.726562 83.335938 138.726562 C 83.054688 138.726562 82.785156 138.671875 82.527344 138.566406 C 82.265625 138.457031 82.039062 138.304688 81.839844 138.105469 C 81.640625 137.90625 81.488281 137.679688 81.378906 137.417969 C 81.273438 137.160156 81.21875 136.890625 81.21875 136.609375 C 81.21875 136.328125 81.273438 136.058594 81.378906 135.796875 C 81.488281 135.539062 81.640625 135.308594 81.839844 135.109375 C 82.039062 134.914062 82.265625 134.757812 82.527344 134.652344 C 82.785156 134.542969 83.054688 134.492188 83.335938 134.492188 C 83.617188 134.492188 83.886719 134.542969 84.148438 134.652344 C 84.40625 134.757812 84.636719 134.914062 84.835938 135.109375 C 85.035156 135.308594 85.1875 135.539062 85.292969 135.796875 C 85.402344 136.058594 85.457031 136.328125 85.457031 136.609375 Z M 85.457031 136.609375 " fill-opacity="1" fill-rule="nonzero"/><path fill="#d6d6d6" d="M 85.457031 163.507812 C 85.457031 163.785156 85.402344 164.058594 85.292969 164.316406 C 85.1875 164.578125 85.035156 164.804688 84.835938 165.003906 C 84.636719 165.203125 84.40625 165.355469 84.148438 165.464844 C 83.886719 165.570312 83.617188 165.625 83.335938 165.625 C 83.054688 165.625 82.785156 165.570312 82.527344 165.464844 C 82.265625 165.355469 82.039062 165.203125 81.839844 165.003906 C 81.640625 164.804688 81.488281 164.578125 81.378906 164.316406 C 81.273438 164.058594 81.21875 163.785156 81.21875 163.507812 C 81.21875 163.226562 81.273438 162.953125 81.378906 162.695312 C 81.488281 162.4375 81.640625 162.207031 81.839844 162.007812 C 82.039062 161.808594 82.265625 161.65625 82.527344 161.550781 C 82.785156 161.441406 83.054688 161.386719 83.335938 161.386719 C 83.617188 161.386719 83.886719 161.441406 84.148438 161.550781 C 84.40625 161.65625 84.636719 161.808594 84.835938 162.007812 C 85.035156 162.207031 85.1875 162.4375 85.292969 162.695312 C 85.402344 162.953125 85.457031 163.226562 85.457031 163.507812 Z M 85.457031 163.507812 " fill-opacity="1" fill-rule="nonzero"/><path fill="#d6d6d6" d="M 18.210938 217.300781 C 18.210938 217.582031 18.15625 217.851562 18.050781 218.113281 C 17.941406 218.371094 17.789062 218.601562 17.589844 218.800781 C 17.390625 219 17.160156 219.152344 16.902344 219.257812 C 16.644531 219.367188 16.371094 219.421875 16.09375 219.421875 C 15.8125 219.421875 15.539062 219.367188 15.28125 219.257812 C 15.023438 219.152344 14.792969 219 14.59375 218.800781 C 14.394531 218.601562 14.242188 218.371094 14.136719 218.113281 C 14.027344 217.851562 13.972656 217.582031 13.972656 217.300781 C 13.972656 217.019531 14.027344 216.75 14.136719 216.492188 C 14.242188 216.230469 14.394531 216.003906 14.59375 215.804688 C 14.792969 215.605469 15.023438 215.453125 15.28125 215.34375 C 15.539062 215.238281 15.8125 215.183594 16.09375 215.183594 C 16.371094 215.183594 16.644531 215.238281 16.902344 215.34375 C 17.160156 215.453125 17.390625 215.605469 17.589844 215.804688 C 17.789062 216.003906 17.941406 216.230469 18.050781 216.492188 C 18.15625 216.75 18.210938 217.019531 18.210938 217.300781 Z M 18.210938 217.300781 " fill-opacity="1" fill-rule="nonzero"/><path fill="#d6d6d6" d="M 18.210938 203.855469 C 18.210938 204.136719 18.15625 204.40625 18.050781 204.664062 C 17.941406 204.925781 17.789062 205.152344 17.589844 205.351562 C 17.390625 205.550781 17.160156 205.703125 16.902344 205.8125 C 16.644531 205.917969 16.371094 205.972656 16.09375 205.972656 C 15.8125 205.972656 15.539062 205.917969 15.28125 205.8125 C 15.023438 205.703125 14.792969 205.550781 14.59375 205.351562 C 14.394531 205.152344 14.242188 204.925781 14.136719 204.664062 C 14.027344 204.40625 13.972656 204.136719 13.972656 203.855469 C 13.972656 203.574219 14.027344 203.304688 14.136719 203.042969 C 14.242188 202.785156 14.394531 202.554688 14.59375 202.355469 C 14.792969 202.15625 15.023438 202.003906 15.28125 201.898438 C 15.539062 201.789062 15.8125 201.734375 16.09375 201.734375 C 16.371094 201.734375 16.644531 201.789062 16.902344 201.898438 C 17.160156 202.003906 17.390625 202.15625 17.589844 202.355469 C 17.789062 202.554688 17.941406 202.785156 18.050781 203.042969 C 18.15625 203.304688 18.210938 203.574219 18.210938 203.855469 Z M 18.210938 203.855469 " fill-opacity="1" fill-rule="nonzero"/><path fill="#d6d6d6" d="M 45.105469 123.160156 C 45.105469 123.441406 45.054688 123.710938 44.945312 123.96875 C 44.839844 124.230469 44.6875 124.457031 44.488281 124.65625 C 44.289062 124.855469 44.058594 125.007812 43.800781 125.117188 C 43.539062 125.222656 43.269531 125.277344 42.988281 125.277344 C 42.707031 125.277344 42.4375 125.222656 42.179688 125.117188 C 41.917969 125.007812 41.691406 124.855469 41.492188 124.65625 C 41.292969 124.457031 41.140625 124.230469 41.03125 123.96875 C 40.925781 123.710938 40.871094 123.441406 40.871094 123.160156 C 40.871094 122.878906 40.925781 122.609375 41.03125 122.347656 C 41.140625 122.089844 41.292969 121.859375 41.492188 121.660156 C 41.691406 121.464844 41.917969 121.308594 42.179688 121.203125 C 42.4375 121.09375 42.707031 121.042969 42.988281 121.042969 C 43.269531 121.042969 43.539062 121.09375 43.800781 121.203125 C 44.058594 121.308594 44.289062 121.464844 44.488281 121.660156 C 44.6875 121.859375 44.839844 122.089844 44.945312 122.347656 C 45.054688 122.609375 45.105469 122.878906 45.105469 123.160156 Z M 45.105469 123.160156 " fill-opacity="1" fill-rule="nonzero"/><path fill="#d6d6d6" d="M 18.210938 176.957031 C 18.210938 177.238281 18.15625 177.507812 18.050781 177.765625 C 17.941406 178.027344 17.789062 178.253906 17.589844 178.453125 C 17.390625 178.652344 17.160156 178.804688 16.902344 178.914062 C 16.644531 179.019531 16.371094 179.074219 16.09375 179.074219 C 15.8125 179.074219 15.539062 179.019531 15.28125 178.914062 C 15.023438 178.804688 14.792969 178.652344 14.59375 178.453125 C 14.394531 178.253906 14.242188 178.027344 14.136719 177.765625 C 14.027344 177.507812 13.972656 177.238281 13.972656 176.957031 C 13.972656 176.675781 14.027344 176.40625 14.136719 176.144531 C 14.242188 175.886719 14.394531 175.65625 14.59375 175.457031 C 14.792969 175.257812 15.023438 175.105469 15.28125 175 C 15.539062 174.890625 15.8125 174.835938 16.09375 174.835938 C 16.371094 174.835938 16.644531 174.890625 16.902344 175 C 17.160156 175.105469 17.390625 175.257812 17.589844 175.457031 C 17.789062 175.65625 17.941406 175.886719 18.050781 176.144531 C 18.15625 176.40625 18.210938 176.675781 18.210938 176.957031 Z M 18.210938 176.957031 " fill-opacity="1" fill-rule="nonzero"/><g clip-path="url(#47f28f1cc0)"><path fill="#d6d6d6" d="M 4.761719 136.609375 C 4.761719 136.890625 4.707031 137.160156 4.597656 137.417969 C 4.492188 137.679688 4.339844 137.90625 4.140625 138.105469 C 3.941406 138.304688 3.710938 138.457031 3.453125 138.566406 C 3.195312 138.671875 2.921875 138.726562 2.640625 138.726562 C 2.363281 138.726562 2.089844 138.671875 1.832031 138.566406 C 1.574219 138.457031 1.34375 138.304688 1.144531 138.105469 C 0.945312 137.90625 0.792969 137.679688 0.6875 137.417969 C 0.578125 137.160156 0.523438 136.890625 0.523438 136.609375 C 0.523438 136.328125 0.578125 136.058594 0.6875 135.796875 C 0.792969 135.539062 0.945312 135.308594 1.144531 135.109375 C 1.34375 134.914062 1.574219 134.757812 1.832031 134.652344 C 2.089844 134.542969 2.363281 134.492188 2.640625 134.492188 C 2.921875 134.492188 3.195312 134.542969 3.453125 134.652344 C 3.710938 134.757812 3.941406 134.914062 4.140625 135.109375 C 4.339844 135.308594 4.492188 135.539062 4.597656 135.796875 C 4.707031 136.058594 4.761719 136.328125 4.761719 136.609375 Z M 4.761719 136.609375 " fill-opacity="1" fill-rule="nonzero"/></g><g clip-path="url(#cdd812c125)"><path fill="#d6d6d6" d="M 4.761719 123.160156 C 4.761719 123.441406 4.707031 123.710938 4.597656 123.96875 C 4.492188 124.230469 4.339844 124.457031 4.140625 124.65625 C 3.941406 124.855469 3.710938 125.007812 3.453125 125.117188 C 3.195312 125.222656 2.921875 125.277344 2.640625 125.277344 C 2.363281 125.277344 2.089844 125.222656 1.832031 125.117188 C 1.574219 125.007812 1.34375 124.855469 1.144531 124.65625 C 0.945312 124.457031 0.792969 124.230469 0.6875 123.96875 C 0.578125 123.710938 0.523438 123.441406 0.523438 123.160156 C 0.523438 122.878906 0.578125 122.609375 0.6875 122.347656 C 0.792969 122.089844 0.945312 121.859375 1.144531 121.660156 C 1.34375 121.464844 1.574219 121.308594 1.832031 121.203125 C 2.089844 121.09375 2.363281 121.042969 2.640625 121.042969 C 2.921875 121.042969 3.195312 121.09375 3.453125 121.203125 C 3.710938 121.308594 3.941406 121.464844 4.140625 121.660156 C 4.339844 121.859375 4.492188 122.089844 4.597656 122.347656 C 4.707031 122.609375 4.761719 122.878906 4.761719 123.160156 Z M 4.761719 123.160156 " fill-opacity="1" fill-rule="nonzero"/></g><g clip-path="url(#e19afe1d03)"><path fill="#d6d6d6" d="M 2.640625 221.890625 C 2.316406 221.890625 2 221.828125 1.695312 221.703125 C 1.394531 221.578125 1.125 221.398438 0.894531 221.167969 C 0.664062 220.9375 0.484375 220.667969 0.359375 220.367188 C 0.234375 220.0625 0.171875 219.746094 0.171875 219.421875 C 0.171875 219.09375 0.234375 218.777344 0.359375 218.472656 C 0.484375 218.171875 0.664062 217.90625 0.894531 217.671875 C 1.125 217.441406 1.394531 217.261719 1.695312 217.136719 C 2 217.011719 2.316406 216.949219 2.640625 216.949219 C 2.96875 216.949219 3.285156 217.011719 3.589844 217.136719 C 3.890625 217.261719 4.160156 217.441406 4.390625 217.671875 C 4.621094 217.90625 4.800781 218.171875 4.925781 218.472656 C 5.050781 218.777344 5.113281 219.09375 5.113281 219.421875 C 5.113281 219.746094 5.050781 220.0625 4.925781 220.367188 C 4.800781 220.667969 4.621094 220.933594 4.390625 221.167969 C 4.15625 221.398438 3.890625 221.578125 3.585938 221.703125 C 3.285156 221.828125 2.96875 221.890625 2.640625 221.890625 Z M 2.640625 217.65625 C 2.410156 217.65625 2.183594 217.699219 1.96875 217.789062 C 1.75 217.878906 1.558594 218.007812 1.394531 218.171875 C 1.230469 218.335938 1.101562 218.527344 1.011719 218.746094 C 0.921875 218.960938 0.878906 219.1875 0.878906 219.421875 C 0.878906 219.65625 0.921875 219.878906 1.011719 220.097656 C 1.101562 220.3125 1.230469 220.503906 1.394531 220.667969 C 1.558594 220.835938 1.75 220.960938 1.96875 221.050781 C 2.183594 221.140625 2.410156 221.183594 2.640625 221.183594 C 2.875 221.183594 3.101562 221.140625 3.316406 221.050781 C 3.535156 220.960938 3.726562 220.835938 3.890625 220.667969 C 4.054688 220.503906 4.183594 220.3125 4.273438 220.097656 C 4.363281 219.878906 4.40625 219.65625 4.40625 219.421875 C 4.40625 219.1875 4.363281 218.960938 4.273438 218.746094 C 4.183594 218.527344 4.054688 218.339844 3.890625 218.171875 C 3.722656 218.007812 3.535156 217.878906 3.316406 217.789062 C 3.101562 217.699219 2.875 217.65625 2.640625 217.65625 Z M 2.640625 217.65625 " fill-opacity="1" fill-rule="nonzero"/></g><g clip-path="url(#c601d8ea18)"><path fill="#d6d6d6" d="M 2.640625 114.300781 C 2.316406 114.300781 2 114.238281 1.695312 114.113281 C 1.394531 113.984375 1.125 113.808594 0.894531 113.574219 C 0.664062 113.34375 0.484375 113.078125 0.359375 112.773438 C 0.234375 112.472656 0.171875 112.15625 0.171875 111.828125 C 0.171875 111.5 0.234375 111.183594 0.359375 110.882812 C 0.484375 110.578125 0.664062 110.3125 0.894531 110.082031 C 1.125 109.847656 1.394531 109.671875 1.695312 109.546875 C 2 109.417969 2.316406 109.355469 2.640625 109.355469 C 2.96875 109.355469 3.285156 109.417969 3.589844 109.546875 C 3.890625 109.671875 4.160156 109.847656 4.390625 110.082031 C 4.621094 110.3125 4.800781 110.578125 4.925781 110.882812 C 5.050781 111.183594 5.113281 111.5 5.113281 111.828125 C 5.113281 112.15625 5.050781 112.472656 4.925781 112.773438 C 4.800781 113.078125 4.621094 113.34375 4.390625 113.574219 C 4.15625 113.808594 3.890625 113.984375 3.585938 114.109375 C 3.285156 114.234375 2.96875 114.300781 2.640625 114.300781 Z M 2.640625 110.0625 C 2.410156 110.0625 2.183594 110.109375 1.96875 110.199219 C 1.75 110.289062 1.558594 110.414062 1.394531 110.582031 C 1.230469 110.746094 1.101562 110.9375 1.011719 111.152344 C 0.921875 111.367188 0.878906 111.59375 0.878906 111.828125 C 0.878906 112.0625 0.921875 112.289062 1.011719 112.503906 C 1.101562 112.71875 1.230469 112.910156 1.394531 113.078125 C 1.558594 113.242188 1.75 113.371094 1.96875 113.460938 C 2.183594 113.546875 2.410156 113.59375 2.640625 113.59375 C 2.875 113.59375 3.101562 113.546875 3.316406 113.460938 C 3.535156 113.371094 3.726562 113.242188 3.890625 113.078125 C 4.054688 112.910156 4.183594 112.71875 4.273438 112.503906 C 4.363281 112.289062 4.40625 112.0625 4.40625 111.828125 C 4.40625 111.59375 4.363281 111.371094 4.273438 111.152344 C 4.183594 110.9375 4.054688 110.746094 3.890625 110.582031 C 3.722656 110.414062 3.535156 110.289062 3.316406 110.199219 C 3.101562 110.109375 2.875 110.0625 2.640625 110.0625 Z M 2.640625 110.0625 " fill-opacity="1" fill-rule="nonzero"/></g><path fill="#d6d6d6" d="M 16.058594 100.851562 C 15.730469 100.851562 15.414062 100.789062 15.113281 100.664062 C 14.808594 100.535156 14.542969 100.359375 14.3125 100.125 C 14.078125 99.894531 13.898438 99.628906 13.773438 99.324219 C 13.648438 99.023438 13.585938 98.707031 13.585938 98.378906 C 13.585938 98.050781 13.648438 97.734375 13.773438 97.433594 C 13.898438 97.128906 14.078125 96.863281 14.3125 96.632812 C 14.542969 96.398438 14.808594 96.222656 15.113281 96.097656 C 15.414062 95.96875 15.730469 95.90625 16.058594 95.90625 C 16.386719 95.90625 16.699219 95.96875 17.003906 96.097656 C 17.304688 96.222656 17.574219 96.398438 17.804688 96.632812 C 18.039062 96.863281 18.214844 97.128906 18.339844 97.433594 C 18.464844 97.734375 18.527344 98.050781 18.527344 98.378906 C 18.527344 98.707031 18.464844 99.023438 18.339844 99.324219 C 18.214844 99.625 18.035156 99.894531 17.804688 100.125 C 17.574219 100.355469 17.304688 100.535156 17.003906 100.660156 C 16.699219 100.785156 16.386719 100.851562 16.058594 100.851562 Z M 16.058594 96.613281 C 15.824219 96.613281 15.597656 96.660156 15.382812 96.75 C 15.167969 96.835938 14.976562 96.964844 14.808594 97.132812 C 14.644531 97.296875 14.515625 97.488281 14.425781 97.703125 C 14.335938 97.917969 14.292969 98.144531 14.292969 98.378906 C 14.292969 98.613281 14.335938 98.839844 14.425781 99.054688 C 14.515625 99.269531 14.644531 99.460938 14.808594 99.628906 C 14.976562 99.792969 15.167969 99.921875 15.382812 100.011719 C 15.597656 100.097656 15.824219 100.144531 16.058594 100.144531 C 16.292969 100.144531 16.515625 100.097656 16.734375 100.011719 C 16.949219 99.921875 17.140625 99.792969 17.304688 99.628906 C 17.472656 99.460938 17.597656 99.269531 17.6875 99.054688 C 17.777344 98.839844 17.824219 98.613281 17.824219 98.378906 C 17.824219 98.144531 17.777344 97.921875 17.6875 97.703125 C 17.597656 97.488281 17.472656 97.296875 17.304688 97.132812 C 17.140625 96.964844 16.949219 96.839844 16.734375 96.75 C 16.515625 96.660156 16.292969 96.613281 16.058594 96.613281 Z M 16.058594 96.613281 " fill-opacity="1" fill-rule="nonzero"/><path fill="#d6d6d6" d="M 56.4375 109.691406 C 56.109375 109.691406 55.796875 109.628906 55.492188 109.503906 C 55.191406 109.378906 54.921875 109.199219 54.691406 108.96875 C 54.460938 108.738281 54.28125 108.46875 54.15625 108.167969 C 54.03125 107.863281 53.96875 107.550781 53.96875 107.222656 C 53.96875 106.894531 54.03125 106.578125 54.15625 106.277344 C 54.28125 105.972656 54.460938 105.707031 54.691406 105.472656 C 54.921875 105.242188 55.191406 105.0625 55.492188 104.9375 C 55.796875 104.8125 56.109375 104.75 56.4375 104.75 C 56.765625 104.75 57.082031 104.8125 57.382812 104.9375 C 57.6875 105.0625 57.953125 105.242188 58.1875 105.472656 C 58.417969 105.707031 58.597656 105.972656 58.722656 106.277344 C 58.847656 106.578125 58.910156 106.894531 58.910156 107.222656 C 58.910156 107.550781 58.847656 107.863281 58.722656 108.167969 C 58.59375 108.46875 58.417969 108.738281 58.183594 108.96875 C 57.953125 109.199219 57.6875 109.378906 57.382812 109.503906 C 57.082031 109.628906 56.765625 109.691406 56.4375 109.691406 Z M 56.4375 105.457031 C 56.203125 105.457031 55.980469 105.5 55.761719 105.589844 C 55.546875 105.679688 55.355469 105.808594 55.191406 105.972656 C 55.023438 106.140625 54.898438 106.332031 54.808594 106.546875 C 54.71875 106.761719 54.671875 106.988281 54.671875 107.222656 C 54.671875 107.457031 54.71875 107.679688 54.808594 107.898438 C 54.898438 108.113281 55.023438 108.304688 55.191406 108.46875 C 55.355469 108.636719 55.546875 108.761719 55.761719 108.851562 C 55.980469 108.941406 56.203125 108.988281 56.4375 108.988281 C 56.671875 108.988281 56.898438 108.941406 57.113281 108.851562 C 57.332031 108.761719 57.519531 108.636719 57.6875 108.46875 C 57.851562 108.304688 57.980469 108.113281 58.070312 107.898438 C 58.160156 107.679688 58.203125 107.457031 58.203125 107.222656 C 58.203125 106.988281 58.160156 106.761719 58.070312 106.546875 C 57.980469 106.332031 57.851562 106.140625 57.6875 105.972656 C 57.519531 105.808594 57.328125 105.679688 57.113281 105.59375 C 56.898438 105.503906 56.671875 105.457031 56.4375 105.457031 Z M 56.4375 105.457031 " fill-opacity="1" fill-rule="nonzero"/><path fill="#d6d6d6" d="M 27.421875 219.773438 C 27.09375 219.773438 26.777344 219.710938 26.476562 219.585938 C 26.171875 219.460938 25.90625 219.28125 25.675781 219.050781 C 25.441406 218.816406 25.265625 218.550781 25.136719 218.246094 C 25.011719 217.945312 24.949219 217.628906 24.949219 217.300781 C 24.949219 216.972656 25.011719 216.660156 25.136719 216.355469 C 25.265625 216.054688 25.441406 215.785156 25.675781 215.554688 C 25.90625 215.324219 26.171875 215.144531 26.476562 215.019531 C 26.777344 214.894531 27.09375 214.832031 27.421875 214.832031 C 27.75 214.832031 28.066406 214.894531 28.367188 215.019531 C 28.671875 215.144531 28.9375 215.324219 29.167969 215.554688 C 29.402344 215.785156 29.578125 216.054688 29.703125 216.355469 C 29.832031 216.660156 29.894531 216.972656 29.894531 217.300781 C 29.890625 217.628906 29.828125 217.945312 29.703125 218.246094 C 29.578125 218.550781 29.398438 218.816406 29.167969 219.046875 C 28.9375 219.28125 28.667969 219.457031 28.367188 219.585938 C 28.0625 219.710938 27.75 219.773438 27.421875 219.773438 Z M 27.421875 215.535156 C 27.1875 215.535156 26.960938 215.582031 26.746094 215.671875 C 26.53125 215.761719 26.339844 215.886719 26.171875 216.054688 C 26.007812 216.21875 25.878906 216.410156 25.789062 216.625 C 25.703125 216.84375 25.65625 217.066406 25.65625 217.300781 C 25.65625 217.535156 25.703125 217.761719 25.789062 217.976562 C 25.878906 218.195312 26.007812 218.382812 26.171875 218.550781 C 26.339844 218.714844 26.53125 218.84375 26.746094 218.933594 C 26.960938 219.023438 27.1875 219.066406 27.421875 219.066406 C 27.65625 219.066406 27.878906 219.023438 28.097656 218.933594 C 28.3125 218.84375 28.503906 218.714844 28.667969 218.550781 C 28.835938 218.382812 28.960938 218.195312 29.050781 217.976562 C 29.140625 217.761719 29.1875 217.535156 29.1875 217.300781 C 29.1875 217.066406 29.140625 216.84375 29.050781 216.628906 C 28.960938 216.410156 28.835938 216.21875 28.667969 216.054688 C 28.503906 215.890625 28.3125 215.761719 28.097656 215.671875 C 27.878906 215.582031 27.65625 215.539062 27.421875 215.535156 Z M 27.421875 215.535156 " fill-opacity="1" fill-rule="nonzero"/><path fill="#d6d6d6" d="M 67.769531 219.773438 C 67.441406 219.773438 67.125 219.710938 66.824219 219.585938 C 66.519531 219.460938 66.253906 219.28125 66.023438 219.050781 C 65.789062 218.816406 65.613281 218.550781 65.488281 218.246094 C 65.359375 217.945312 65.296875 217.628906 65.296875 217.300781 C 65.296875 216.972656 65.359375 216.660156 65.488281 216.355469 C 65.613281 216.054688 65.789062 215.785156 66.023438 215.554688 C 66.253906 215.324219 66.519531 215.144531 66.824219 215.019531 C 67.125 214.894531 67.441406 214.832031 67.769531 214.832031 C 68.097656 214.832031 68.414062 214.894531 68.714844 215.019531 C 69.019531 215.144531 69.285156 215.324219 69.515625 215.554688 C 69.75 215.785156 69.925781 216.054688 70.054688 216.355469 C 70.179688 216.660156 70.242188 216.972656 70.242188 217.300781 C 70.242188 217.628906 70.175781 217.945312 70.050781 218.246094 C 69.925781 218.550781 69.746094 218.816406 69.515625 219.046875 C 69.285156 219.28125 69.015625 219.457031 68.714844 219.585938 C 68.414062 219.710938 68.097656 219.773438 67.769531 219.773438 Z M 67.769531 215.535156 C 67.535156 215.535156 67.308594 215.582031 67.09375 215.671875 C 66.878906 215.761719 66.6875 215.886719 66.519531 216.054688 C 66.355469 216.21875 66.226562 216.410156 66.140625 216.625 C 66.050781 216.84375 66.003906 217.066406 66.003906 217.300781 C 66.003906 217.535156 66.050781 217.761719 66.140625 217.976562 C 66.226562 218.195312 66.355469 218.382812 66.519531 218.550781 C 66.6875 218.714844 66.878906 218.84375 67.09375 218.933594 C 67.308594 219.023438 67.535156 219.066406 67.769531 219.066406 C 68.003906 219.066406 68.230469 219.023438 68.445312 218.933594 C 68.660156 218.84375 68.851562 218.714844 69.019531 218.550781 C 69.183594 218.382812 69.3125 218.195312 69.402344 217.976562 C 69.488281 217.761719 69.535156 217.535156 69.535156 217.300781 C 69.535156 217.066406 69.488281 216.84375 69.398438 216.628906 C 69.308594 216.410156 69.183594 216.21875 69.015625 216.054688 C 68.851562 215.890625 68.660156 215.761719 68.445312 215.671875 C 68.230469 215.582031 68.003906 215.539062 67.769531 215.535156 Z M 67.769531 215.535156 " fill-opacity="1" fill-rule="nonzero"/><g clip-path="url(#dd73edd38e)"><path fill="#d6d6d6" d="M 260.292969 136.609375 C 260.292969 136.890625 260.238281 137.160156 260.132812 137.417969 C 260.023438 137.679688 259.871094 137.90625 259.671875 138.105469 C 259.472656 138.304688 259.246094 138.457031 258.984375 138.566406 C 258.726562 138.671875 258.457031 138.726562 258.175781 138.726562 C 257.894531 138.726562 257.625 138.671875 257.363281 138.566406 C 257.105469 138.457031 256.875 138.304688 256.675781 138.105469 C 256.476562 137.90625 256.324219 137.679688 256.21875 137.417969 C 256.109375 137.160156 256.054688 136.890625 256.054688 136.609375 C 256.054688 136.328125 256.109375 136.058594 256.21875 135.796875 C 256.324219 135.539062 256.476562 135.308594 256.675781 135.109375 C 256.875 134.914062 257.105469 134.757812 257.363281 134.652344 C 257.625 134.542969 257.894531 134.492188 258.175781 134.492188 C 258.457031 134.492188 258.726562 134.542969 258.984375 134.652344 C 259.246094 134.757812 259.472656 134.914062 259.671875 135.109375 C 259.871094 135.308594 260.023438 135.539062 260.132812 135.796875 C 260.238281 136.058594 260.292969 136.328125 260.292969 136.609375 Z M 260.292969 136.609375 " fill-opacity="1" fill-rule="nonzero"/></g></svg>